<?xml version="1.0" standalone="no"?>
<!DOCTYPE svg PUBLIC "-//W3C//DTD SVG 20010904//EN"
 "http://www.w3.org/TR/2001/REC-SVG-20010904/DTD/svg10.dtd">
<svg version="1.0" xmlns="http://www.w3.org/2000/svg"
 width="128.000000pt" height="128.000000pt" viewBox="0 0 128.000000 128.000000"
 preserveAspectRatio="xMidYMid meet">
<metadata>
Created by potrace 1.14, written by Peter Selinger 2001-2017
</metadata>
<g transform="translate(0.000000,128.000000) scale(0.100000,-0.100000)"
fill="#000000" stroke="none">
<path d="M538 1274 c-2 -2 -13 -5 -24 -7 -119 -22 -230 -82 -324 -177 -41 -42
-84 -94 -95 -115 -11 -22 -23 -42 -26 -45 -4 -3 -19 -41 -34 -85 -46 -137 -39
-338 15 -446 11 -20 17 -39 14 -41 -2 -3 2 -11 11 -18 8 -7 15 -19 15 -26 0
-8 5 -14 10 -14 6 0 10 -4 10 -10 0 -19 102 -129 155 -166 31 -22 150 -89 150
-85 0 1 7 0 15 -2 125 -39 248 -47 341 -21 30 8 59 16 64 18 6 1 20 7 32 14
12 7 28 12 35 12 42 0 237 165 269 228 8 15 16 29 19 32 7 6 56 118 64 147 17
56 19 75 22 176 2 69 0 107 -7 107 -6 0 -8 4 -5 8 11 18 -65 212 -86 220 -4 2
-8 10 -8 17 0 21 -140 158 -197 193 -29 17 -53 29 -53 26 0 -4 -6 -2 -12 4
-36 29 -147 54 -255 57 -61 2 -113 2 -115 -1z"/>
</g>
</svg>
